<svg xmlns="http://www.w3.org/2000/svg" width="150.336" height="66.813" viewBox="0 0 150.336 66.813"><g transform="translate(0 0)" fill="#fff" stroke="#186acf" stroke-width="1"><rect width="150.336" height="66.812" stroke="none"/><rect x="0.5" y="0.5" width="149.336" height="65.812" fill="none"/></g><text transform="translate(46.316 46.05)" fill="#5c5c5c" font-size="21" font-family="NunitoSans-Bold, Nunito Sans" font-weight="700"><tspan x="-37.558" y="0">USA +1</tspan></text><path d="M14.781,38.671,6.416,30.741l.838-.885,7.48,7.092,6.7-7.066.885.838Z" transform="translate(120.414 8.674)" fill="#006fdb"/><g transform="translate(3.998 2.694)"><path d="M28.417,107.221H.5a.5.5,0,0,1-.5-.5V88.775a.5.5,0,0,1,.5-.5H28.417a.5.5,0,0,1,.5.5v17.948A.5.5,0,0,1,28.417,107.221Z" transform="translate(0 -88.276)" fill="#f5f5f5"/><path d="M28.916,89.733H0v-.959a.5.5,0,0,1,.5-.5H28.417a.5.5,0,0,1,.5.5v.959Z" transform="translate(0 -88.276)" fill="#ff4b55"/><rect width="28.916" height="1.457" transform="translate(0 5.829)" fill="#ff4b55"/><rect width="28.916" height="1.457" transform="translate(0 2.914)" fill="#ff4b55"/><path d="M28.916,244.555H.5a.5.5,0,0,1-.5-.5V243.1H28.916Z" transform="translate(0 -234.354)" fill="#ff4b55"/><rect width="28.916" height="1.457" transform="translate(0 14.573)" fill="#ff4b55"/><path d="M28.417,399.378H.5a.5.5,0,0,1-.5-.5v-.959H28.916v.959A.5.5,0,0,1,28.417,399.378Z" transform="translate(0 -380.434)" fill="#ff4b55"/><rect width="28.916" height="1.457" transform="translate(0 11.659)" fill="#ff4b55"/><path d="M12.962,88.277H.5a.5.5,0,0,0-.5.5v9.2a.5.5,0,0,0,.5.5H12.962a.5.5,0,0,0,.5-.5v-9.2A.5.5,0,0,0,12.962,88.277Z" transform="translate(0 -88.277)" fill="#41479b"/><g transform="translate(0.805 1.112)"><path d="M14.848,108l.11.331.349,0a.047.047,0,0,1,.028.085l-.281.207.105.333a.047.047,0,0,1-.072.052l-.284-.2-.284.2a.047.047,0,0,1-.072-.052l.105-.333-.281-.207a.047.047,0,0,1,.028-.085l.349,0,.11-.331A.047.047,0,0,1,14.848,108Z" transform="translate(-14.253 -107.969)" fill="#f5f5f5"/><path d="M14.848,138.656l.11.331.349,0a.047.047,0,0,1,.028.085l-.281.207.105.333a.047.047,0,0,1-.072.052l-.284-.2-.284.2a.047.047,0,0,1-.072-.052l.105-.333-.281-.207a.047.047,0,0,1,.028-.085l.349,0,.11-.331A.047.047,0,0,1,14.848,138.656Z" transform="translate(-14.253 -136.892)" fill="#f5f5f5"/><path d="M14.848,169.31l.11.331.349,0a.047.047,0,0,1,.028.085l-.281.207.105.333a.047.047,0,0,1-.072.053l-.284-.2-.284.2a.047.047,0,0,1-.072-.052l.105-.333-.281-.207a.047.047,0,0,1,.028-.085l.349,0,.11-.331A.047.047,0,0,1,14.848,169.31Z" transform="translate(-14.253 -165.815)" fill="#f5f5f5"/><path d="M14.848,199.964l.11.331.349,0a.047.047,0,0,1,.028.085l-.281.207.105.333a.047.047,0,0,1-.072.052l-.284-.2-.284.2a.047.047,0,0,1-.072-.052l.105-.333-.281-.207a.047.047,0,0,1,.028-.085l.349,0,.11-.331A.047.047,0,0,1,14.848,199.964Z" transform="translate(-14.253 -194.738)" fill="#f5f5f5"/><path d="M14.848,230.617l.11.331.349,0a.047.047,0,0,1,.028.085l-.281.207.105.332a.047.047,0,0,1-.072.052l-.284-.2-.284.2a.047.047,0,0,1-.072-.053l.105-.333-.281-.207a.047.047,0,0,1,.028-.085l.349,0,.11-.331A.047.047,0,0,1,14.848,230.617Z" transform="translate(-14.253 -223.66)" fill="#f5f5f5"/><path d="M38.641,123.031l.11.331.349,0a.047.047,0,0,1,.028.085l-.281.207.105.333a.047.047,0,0,1-.072.052l-.284-.2-.284.2a.047.047,0,0,1-.072-.052l.105-.333-.281-.207a.047.047,0,0,1,.028-.085l.349,0,.11-.331A.047.047,0,0,1,38.641,123.031Z" transform="translate(-36.702 -122.15)" fill="#f5f5f5"/><path d="M38.641,153.685l.11.331.349,0a.047.047,0,0,1,.028.085l-.281.207.105.333a.047.047,0,0,1-.072.052l-.284-.2-.284.2a.047.047,0,0,1-.072-.052l.105-.333-.281-.207a.047.047,0,0,1,.028-.085l.349,0,.11-.331A.047.047,0,0,1,38.641,153.685Z" transform="translate(-36.702 -151.073)" fill="#f5f5f5"/><path d="M38.641,184.339l.11.331.349,0a.047.047,0,0,1,.028.085l-.281.207.105.333a.047.047,0,0,1-.072.052l-.284-.2-.284.2a.047.047,0,0,1-.072-.052l.105-.333-.281-.207a.047.047,0,0,1,.028-.085l.349,0,.11-.331A.047.047,0,0,1,38.641,184.339Z" transform="translate(-36.702 -179.996)" fill="#f5f5f5"/><path d="M38.641,214.994l.11.331.349,0a.047.047,0,0,1,.028.085l-.281.207.105.333a.047.047,0,0,1-.072.052l-.284-.2-.284.2a.047.047,0,0,1-.072-.052l.105-.333-.281-.207a.047.047,0,0,1,.028-.085l.349,0,.11-.331A.047.047,0,0,1,38.641,214.994Z" transform="translate(-36.702 -208.919)" fill="#f5f5f5"/><path d="M62.434,108l.11.331.349,0a.047.047,0,0,1,.028.085l-.281.207.105.333a.047.047,0,0,1-.072.052l-.284-.2-.284.2a.047.047,0,0,1-.072-.052l.105-.333-.281-.207a.047.047,0,0,1,.028-.085l.349,0,.11-.331A.047.047,0,0,1,62.434,108Z" transform="translate(-59.151 -107.969)" fill="#f5f5f5"/><path d="M62.434,138.656l.11.331.349,0a.047.047,0,0,1,.028.085l-.281.207.105.333a.047.047,0,0,1-.072.052l-.284-.2-.284.2a.047.047,0,0,1-.072-.052l.105-.333-.281-.207a.047.047,0,0,1,.028-.085l.349,0,.11-.331A.047.047,0,0,1,62.434,138.656Z" transform="translate(-59.151 -136.892)" fill="#f5f5f5"/><path d="M62.434,169.31l.11.331.349,0a.047.047,0,0,1,.028.085l-.281.207.105.333a.047.047,0,0,1-.072.052l-.284-.2-.284.2a.047.047,0,0,1-.072-.052l.105-.333-.281-.207a.047.047,0,0,1,.028-.085l.349,0,.11-.331A.047.047,0,0,1,62.434,169.31Z" transform="translate(-59.151 -165.815)" fill="#f5f5f5"/><path d="M62.434,199.964l.11.331.349,0a.047.047,0,0,1,.028.085l-.281.207.105.333a.047.047,0,0,1-.072.052l-.284-.2-.284.2a.047.047,0,0,1-.072-.052l.105-.333-.281-.207a.047.047,0,0,1,.028-.085l.349,0,.11-.331A.047.047,0,0,1,62.434,199.964Z" transform="translate(-59.151 -194.738)" fill="#f5f5f5"/><path d="M62.434,230.617l.11.331.349,0a.047.047,0,0,1,.028.085l-.281.207.105.333a.047.047,0,0,1-.072.052l-.284-.2-.284.2a.047.047,0,0,1-.072-.052l.105-.333-.281-.207a.047.047,0,0,1,.028-.085l.349,0,.11-.331A.047.047,0,0,1,62.434,230.617Z" transform="translate(-59.151 -223.66)" fill="#f5f5f5"/><path d="M86.228,123.031l.11.331.349,0a.047.047,0,0,1,.028.085l-.281.207.105.333a.047.047,0,0,1-.072.052l-.284-.2-.284.2a.047.047,0,0,1-.072-.052l.105-.333-.281-.207a.047.047,0,0,1,.028-.085l.349,0,.11-.331A.047.047,0,0,1,86.228,123.031Z" transform="translate(-81.601 -122.15)" fill="#f5f5f5"/><path d="M86.228,153.685l.11.331.349,0a.047.047,0,0,1,.028.085l-.281.207.105.333a.047.047,0,0,1-.072.052l-.284-.2-.284.2a.047.047,0,0,1-.072-.052l.105-.333-.281-.207a.047.047,0,0,1,.028-.085l.349,0,.11-.331A.047.047,0,0,1,86.228,153.685Z" transform="translate(-81.601 -151.073)" fill="#f5f5f5"/><path d="M86.228,184.339l.11.331.349,0a.047.047,0,0,1,.028.085l-.281.207.105.333a.047.047,0,0,1-.072.052l-.284-.2-.284.2a.047.047,0,0,1-.072-.052l.105-.333-.281-.207a.047.047,0,0,1,.028-.085l.349,0,.11-.331A.047.047,0,0,1,86.228,184.339Z" transform="translate(-81.601 -179.996)" fill="#f5f5f5"/><path d="M86.228,214.994l.11.331.349,0a.047.047,0,0,1,.028.085l-.281.207.105.333a.047.047,0,0,1-.072.052l-.284-.2-.284.2a.047.047,0,0,1-.072-.052l.105-.333-.281-.207a.047.047,0,0,1,.028-.085l.349,0,.11-.331A.047.047,0,0,1,86.228,214.994Z" transform="translate(-81.601 -208.919)" fill="#f5f5f5"/><path d="M110.02,108l.11.331.349,0a.047.047,0,0,1,.028.085l-.281.207.105.333a.047.047,0,0,1-.072.052l-.284-.2-.284.2a.047.047,0,0,1-.072-.052l.105-.333-.281-.207a.047.047,0,0,1,.028-.085l.349,0,.11-.331A.047.047,0,0,1,110.02,108Z" transform="translate(-104.05 -107.969)" fill="#f5f5f5"/><path d="M110.02,138.656l.11.331.349,0a.047.047,0,0,1,.028.085l-.281.207.105.333a.047.047,0,0,1-.072.052l-.284-.2-.284.2a.047.047,0,0,1-.072-.052l.105-.333-.281-.207a.047.047,0,0,1,.028-.085l.349,0,.11-.331A.047.047,0,0,1,110.02,138.656Z" transform="translate(-104.05 -136.892)" fill="#f5f5f5"/><path d="M110.02,169.31l.11.331.349,0a.047.047,0,0,1,.028.085l-.281.207.105.333a.047.047,0,0,1-.072.052l-.284-.2-.284.2a.047.047,0,0,1-.072-.052l.105-.333-.281-.207a.047.047,0,0,1,.028-.085l.349,0,.11-.331A.047.047,0,0,1,110.02,169.31Z" transform="translate(-104.05 -165.815)" fill="#f5f5f5"/><path d="M110.02,199.964l.11.331.349,0a.047.047,0,0,1,.028.085l-.281.207.105.333a.047.047,0,0,1-.072.052l-.284-.2-.284.2a.047.047,0,0,1-.072-.052l.105-.333-.281-.207a.047.047,0,0,1,.028-.085l.349,0,.11-.331A.047.047,0,0,1,110.02,199.964Z" transform="translate(-104.05 -194.738)" fill="#f5f5f5"/><path d="M110.02,230.617l.11.331.349,0a.047.047,0,0,1,.028.085l-.281.207.105.333a.047.047,0,0,1-.072.052l-.284-.2-.284.2a.047.047,0,0,1-.072-.052l.105-.333-.281-.207a.047.047,0,0,1,.028-.085l.349,0,.11-.331A.047.047,0,0,1,110.02,230.617Z" transform="translate(-104.05 -223.66)" fill="#f5f5f5"/><path d="M133.814,123.031l.11.331.349,0a.047.047,0,0,1,.028.085l-.281.207.105.333a.047.047,0,0,1-.072.052l-.284-.2-.284.2a.047.047,0,0,1-.072-.052l.105-.333-.281-.207a.047.047,0,0,1,.028-.085l.349,0,.11-.331A.047.047,0,0,1,133.814,123.031Z" transform="translate(-126.5 -122.15)" fill="#f5f5f5"/><path d="M133.814,153.685l.11.331.349,0a.047.047,0,0,1,.028.085l-.281.207.105.333a.047.047,0,0,1-.072.052l-.284-.2-.284.2a.047.047,0,0,1-.072-.052l.105-.333-.281-.207a.047.047,0,0,1,.028-.085l.349,0,.11-.331A.047.047,0,0,1,133.814,153.685Z" transform="translate(-126.5 -151.073)" fill="#f5f5f5"/><path d="M133.814,184.339l.11.331.349,0a.047.047,0,0,1,.028.085l-.281.207.105.333a.047.047,0,0,1-.072.052l-.284-.2-.284.2a.047.047,0,0,1-.072-.052l.105-.333-.281-.207a.047.047,0,0,1,.028-.085l.349,0,.11-.331A.047.047,0,0,1,133.814,184.339Z" transform="translate(-126.5 -179.996)" fill="#f5f5f5"/><path d="M133.814,214.994l.11.331.349,0a.047.047,0,0,1,.028.085l-.281.207.105.333a.047.047,0,0,1-.072.052l-.284-.2-.284.2a.047.047,0,0,1-.072-.052l.105-.333-.281-.207a.047.047,0,0,1,.028-.085l.349,0,.11-.331A.047.047,0,0,1,133.814,214.994Z" transform="translate(-126.5 -208.919)" fill="#f5f5f5"/><path d="M157.608,108l.11.331.349,0a.047.047,0,0,1,.027.085l-.281.207.105.333a.047.047,0,0,1-.072.052l-.284-.2-.284.2a.047.047,0,0,1-.072-.052l.105-.333-.281-.207a.047.047,0,0,1,.028-.085l.349,0,.11-.331A.047.047,0,0,1,157.608,108Z" transform="translate(-148.95 -107.969)" fill="#f5f5f5"/><path d="M157.608,138.656l.11.331.349,0a.047.047,0,0,1,.027.085l-.281.207.105.333a.047.047,0,0,1-.072.052l-.284-.2-.284.2a.047.047,0,0,1-.072-.052l.105-.333-.281-.207a.047.047,0,0,1,.028-.085l.349,0,.11-.331A.047.047,0,0,1,157.608,138.656Z" transform="translate(-148.95 -136.892)" fill="#f5f5f5"/><path d="M157.608,169.31l.11.331.349,0a.047.047,0,0,1,.027.085l-.281.207.105.333a.047.047,0,0,1-.072.052l-.284-.2-.284.2a.047.047,0,0,1-.072-.052l.105-.333-.281-.207a.047.047,0,0,1,.028-.085l.349,0,.11-.331A.047.047,0,0,1,157.608,169.31Z" transform="translate(-148.95 -165.815)" fill="#f5f5f5"/><path d="M157.608,199.964l.11.331.349,0a.047.047,0,0,1,.027.085l-.281.207.105.333a.047.047,0,0,1-.072.052l-.284-.2-.284.2a.047.047,0,0,1-.072-.052l.105-.333-.281-.207a.047.047,0,0,1,.028-.085l.349,0,.11-.331A.047.047,0,0,1,157.608,199.964Z" transform="translate(-148.95 -194.738)" fill="#f5f5f5"/><path d="M157.608,230.617l.11.331.349,0a.047.047,0,0,1,.027.085l-.281.207.105.333a.047.047,0,0,1-.072.052l-.284-.2-.284.2a.047.047,0,0,1-.072-.052l.105-.333-.281-.207a.047.047,0,0,1,.028-.085l.349,0,.11-.331A.047.047,0,0,1,157.608,230.617Z" transform="translate(-148.95 -223.66)" fill="#f5f5f5"/><path d="M181.4,123.031l.11.331.349,0a.047.047,0,0,1,.028.085l-.281.207.105.333a.047.047,0,0,1-.072.052l-.284-.2-.284.2a.047.047,0,0,1-.072-.052l.105-.333-.281-.207a.047.047,0,0,1,.027-.085l.349,0,.11-.331A.047.047,0,0,1,181.4,123.031Z" transform="translate(-171.399 -122.15)" fill="#f5f5f5"/><path d="M181.4,153.685l.11.331.349,0a.047.047,0,0,1,.028.085l-.281.207.105.333a.047.047,0,0,1-.072.052l-.284-.2-.284.2a.047.047,0,0,1-.072-.052l.105-.333-.281-.207a.047.047,0,0,1,.027-.085l.349,0,.11-.331A.047.047,0,0,1,181.4,153.685Z" transform="translate(-171.399 -151.073)" fill="#f5f5f5"/><path d="M181.4,184.339l.11.331.349,0a.047.047,0,0,1,.028.085l-.281.207.105.333a.047.047,0,0,1-.072.052l-.284-.2-.284.2A.047.047,0,0,1,181,185.3l.105-.333-.281-.207a.047.047,0,0,1,.027-.085l.349,0,.11-.331A.047.047,0,0,1,181.4,184.339Z" transform="translate(-171.399 -179.996)" fill="#f5f5f5"/><path d="M181.4,214.994l.11.331.349,0a.047.047,0,0,1,.028.085l-.281.207.105.333a.047.047,0,0,1-.072.052l-.284-.2-.284.2a.047.047,0,0,1-.072-.052l.105-.333-.281-.207a.047.047,0,0,1,.027-.085l.349,0,.11-.331A.047.047,0,0,1,181.4,214.994Z" transform="translate(-171.399 -208.919)" fill="#f5f5f5"/><path d="M205.195,108l.11.331.349,0a.047.047,0,0,1,.027.085l-.281.207.105.333a.047.047,0,0,1-.072.052l-.284-.2-.284.2a.047.047,0,0,1-.072-.052l.105-.333-.281-.207a.047.047,0,0,1,.028-.085l.349,0,.11-.331A.047.047,0,0,1,205.195,108Z" transform="translate(-193.85 -107.969)" fill="#f5f5f5"/><path d="M205.195,138.656l.11.331.349,0a.047.047,0,0,1,.027.085l-.281.207.105.333a.047.047,0,0,1-.072.052l-.284-.2-.284.2a.047.047,0,0,1-.072-.052l.105-.333-.281-.207a.047.047,0,0,1,.028-.085l.349,0,.11-.331A.047.047,0,0,1,205.195,138.656Z" transform="translate(-193.85 -136.892)" fill="#f5f5f5"/><path d="M205.195,169.31l.11.331.349,0a.047.047,0,0,1,.027.085l-.281.207.105.333a.047.047,0,0,1-.072.052l-.284-.2-.284.2a.047.047,0,0,1-.072-.052l.105-.333-.281-.207a.047.047,0,0,1,.028-.085l.349,0,.11-.331A.047.047,0,0,1,205.195,169.31Z" transform="translate(-193.85 -165.815)" fill="#f5f5f5"/><path d="M205.195,199.964l.11.331.349,0a.047.047,0,0,1,.027.085l-.281.207.105.333a.047.047,0,0,1-.072.052l-.284-.2-.284.2a.047.047,0,0,1-.072-.052l.105-.333-.281-.207a.047.047,0,0,1,.028-.085l.349,0,.11-.331A.047.047,0,0,1,205.195,199.964Z" transform="translate(-193.85 -194.738)" fill="#f5f5f5"/><path d="M205.195,230.617l.11.331.349,0a.047.047,0,0,1,.027.085l-.281.207.105.333a.047.047,0,0,1-.072.052l-.284-.2-.284.2a.047.047,0,0,1-.072-.052l.105-.333-.281-.207a.047.047,0,0,1,.028-.085l.349,0,.11-.331A.047.047,0,0,1,205.195,230.617Z" transform="translate(-193.85 -223.66)" fill="#f5f5f5"/></g></g></svg>